<svg height='100px' width='100px'  fill="#ffffff" xmlns="http://www.w3.org/2000/svg" xmlns:xlink="http://www.w3.org/1999/xlink" xml:space="preserve" version="1.1" style="shape-rendering:geometricPrecision;text-rendering:geometricPrecision;image-rendering:optimizeQuality;" viewBox="0 0 100 100" x="0px" y="0px" fill-rule="evenodd" clip-rule="evenodd"><defs><style type="text/css">
   
    .fil0 {fill:#ffffff;fill-rule:nonzero}
   
  </style></defs><g><path class="fil0" d="M51.35 27.73c-0.35,0.74 -1.25,1.06 -1.99,0.71 -0.75,-0.36 -1.07,-1.25 -0.71,-2 1.91,-4 4.91,-7 8.5,-9.04 3.87,-2.21 8.41,-3.29 12.99,-3.29 5.36,0 10.99,2.6 15.15,6.76 3.87,3.86 6.5,9.1 6.5,14.89 0,12.76 -7.18,23.47 -15.96,31.91 -8.64,8.31 -18.82,14.39 -25.09,18.01 -0.47,0.27 -1.04,0.26 -1.49,0 -6.26,-3.61 -16.43,-9.7 -25.08,-18.01 -8.77,-8.44 -15.96,-19.15 -15.96,-31.91 0,-5.79 2.63,-11.03 6.5,-14.89 4.16,-4.16 9.79,-6.76 15.15,-6.76 3.41,0 6.8,0.6 9.91,1.82 2.97,1.16 5.68,2.89 7.9,5.19 0.57,0.59 0.55,1.54 -0.04,2.11 -0.6,0.58 -1.55,0.56 -2.12,-0.04 -1.9,-1.98 -4.25,-3.47 -6.83,-4.47 -2.74,-1.08 -5.76,-1.61 -8.82,-1.61 -4.57,0 -9.41,2.26 -13.03,5.88 -3.34,3.34 -5.62,7.84 -5.62,12.77 0,8.96 3.92,16.9 9.42,23.68l12.66 -21.91 0.01 -0.03 0.01 -0.02 0.01 -0.02 0.02 -0.02 0 0c0.02,-0.04 0.05,-0.08 0.08,-0.12l0.01 0 0.06 -0.07 0 0c0.06,-0.06 0.12,-0.11 0.2,-0.15l11.27 -6.51c1.58,-0.92 2.58,-1.29 3.39,-0.87 0.87,0.44 1.09,1.45 1.09,3.28l-0.01 13.18 0 0.01 0 0 0 0.02 0 0.01 0 0.01 0 0.01 0 0 0 0.02 0 0.01 0 0.01 0 0.01 0 0.01 0 0.01 -0.01 0.01 0 0.01 0 0.01 0 0.01 0 0.01 0 0.01 0 0.01 -0.01 0.01 0 0.01 0 0.01 0 0.01 -0.01 0.01 0 0.01 0 0 0 0.02 0 0 -0.01 0.01 0 0.01 0 0.01 0 0 -0.01 0.02 0 0 0 0.01 -0.01 0.01 0 0.01 0 0 -0.01 0.01 0 0.01 0 0.01 0 0.01 -0.01 0.01 0 0.01 -0.01 0 0 0.01 0 0.01 -0.01 0.01 -0.01 0.01 0 0.02 -0.01 0.01 0 0 -0.01 0.02 0 0 -0.01 0.02 -14.87 25.75c5.73,4.35 11.42,7.78 15.58,10.2 6.18,-3.58 15.69,-9.39 23.76,-17.14 8.26,-7.95 15.03,-17.98 15.03,-29.76 0,-4.93 -2.28,-9.43 -5.62,-12.77 -3.62,-3.62 -8.46,-5.88 -13.03,-5.88 -4.09,0 -8.12,0.95 -11.52,2.89 -3.07,1.74 -5.64,4.31 -7.27,7.73zm-7.97 19.54l-6.02 10.43c-0.28,0.47 -0.89,0.64 -1.36,0.37 -0.48,-0.28 -0.64,-0.89 -0.37,-1.36l6.07 -10.52 -1.04 -2.98 -3.1 0.58 -9.11 15.78c-0.27,0.47 -0.88,0.64 -1.36,0.36 -0.48,-0.27 -0.64,-0.89 -0.36,-1.36l9.05 -15.68 -1.61 -2.9 -12.17 21.08c1.35,1.55 2.77,3.03 4.25,4.45 2.12,2.04 4.34,3.94 6.58,5.71l13.87 -24.01 -3.32 0.05zm4.06 -12.04l-3.26 -1.89 -8.65 5 1.92 3.44 3.68 -0.68c0.49,-0.09 0.96,0.19 1.12,0.65l1.25 3.53 3.94 -0.07 0 -9.98z"></path></g></svg>